<svg width="111" height="36" viewBox="0 0 111 36" fill="none" xmlns="http://www.w3.org/2000/svg">
<g clip-path="url(#clip0_134_2349)">
<path d="M25.6455 24.1084L30.9545 16.9887L26.2795 10.3861H28.4445L30.9485 13.8959C31.4702 14.6235 31.8314 15.1807 32.04 15.5675C32.349 15.0885 32.7142 14.5774 33.1335 14.0382L35.8763 10.3861H37.8687L33.0974 16.9085L38.2339 24.1084H36.0027L32.5376 19.2136C32.339 18.935 32.1504 18.6584 31.9738 18.3838C31.6668 18.8428 31.4501 19.1655 31.3157 19.3479L27.8325 24.1084H25.6455ZM40.144 24.1084V10.3861H41.9659V24.1104H40.144V24.1084ZM43.6613 24.1084L48.9302 10.3841H50.9286L56.5206 24.1084H54.454L52.8649 19.9492H47.0803L45.5895 24.1084H43.6613ZM47.614 18.474H52.295L50.8624 14.6696C50.431 13.513 50.104 12.5589 49.8773 11.8052C49.6887 12.6992 49.4359 13.5771 49.1188 14.4471L47.614 18.474ZM57.4094 17.4297C57.4094 15.1546 58.0234 13.3727 59.2473 12.0858C60.4713 10.799 62.0523 10.1556 63.9885 10.1556C65.2586 10.1556 66.4003 10.4603 67.4196 11.0636C68.4368 11.6669 69.2133 12.5108 69.747 13.5932C70.2807 14.6736 70.5496 15.9003 70.5496 17.2713C70.5496 18.6604 70.2687 19.9071 69.7049 21.0016C69.1411 22.1 68.3465 22.9318 67.3172 23.4931C66.2839 24.0583 65.1723 24.339 63.9785 24.339C62.6824 24.339 61.5287 24.0263 60.5094 23.4029C59.4921 22.7795 58.7176 21.9296 58.194 20.8512C57.6703 19.7749 57.4094 18.6343 57.4094 17.4297ZM59.2895 17.4617C59.2895 19.1134 59.7349 20.4143 60.6217 21.3624C61.5106 22.3105 62.6262 22.7875 63.9705 22.7875C65.3389 22.7875 66.4605 22.3085 67.3473 21.3503C68.2302 20.3922 68.6716 19.0312 68.6716 17.2673C68.6716 16.1528 68.483 15.1787 68.1058 14.3468C67.7285 13.517 67.1748 12.8716 66.4504 12.4146C65.7221 11.9576 64.9055 11.7291 64.0006 11.7291C62.7145 11.7291 61.6089 12.17 60.6819 13.052C59.753 13.9319 59.2895 15.4012 59.2895 17.4617ZM72.851 24.1084V10.3861H75.5757L78.8242 20.0996C79.1251 21.0036 79.3418 21.6811 79.4803 22.1321C79.6368 21.633 79.8836 20.8993 80.2146 19.9312L83.5212 10.3861H85.955V24.1104H84.2094V12.629L80.2006 24.1104H78.5633L74.5966 12.4186V24.1104H72.851V24.1084ZM89.1774 24.1084V10.3861H90.9992V24.1104H89.1774V24.1084Z" fill="white"/>
<path d="M0.420375 7.96875H20.0975C20.3303 7.96875 20.5189 8.15316 20.5189 8.38367V27.6182C20.5189 27.8467 20.3303 28.0331 20.0975 28.0331H0.420375C0.187629 28.0331 -0.000976562 27.8467 -0.000976562 27.6182V8.38367C-0.000976562 8.15316 0.187629 7.96875 0.420375 7.96875Z" fill="#EF7E1F"/>
<path d="M15.7457 12.8556H18.2759V23.1323H15.7457V12.8556ZM6.73283 16.8204H9.31912V23.0481H6.73283V16.8204ZM2.27051 12.8556L4.80063 12.8837H11.0988C12.7 12.8837 13.7835 14.2868 13.7835 15.754C13.7855 18.0972 13.8115 23.1043 13.8115 23.1043L11.3557 23.1143L11.3095 16.5297C11.3035 15.6097 10.6755 15.0144 9.76054 15.0003C8.58276 14.9843 5.59518 15.0184 4.79862 15.0284V23.1303H2.27051V12.8556Z" fill="white"/>
</g>
<defs>
<clipPath id="clip0_134_2349">
<rect width="111" height="36" fill="white"/>
</clipPath>
</defs>
</svg>
