<svg width="111" height="36" viewBox="0 0 111 36" fill="none" xmlns="http://www.w3.org/2000/svg">
<g clip-path="url(#clip0_134_2352)">
<path d="M0 12.6761C0 5.67527 5.64733 0 12.6136 0H35.5924V23.0925C35.5924 30.0933 29.9451 35.7685 22.9788 35.7685H0V12.6761Z" fill="#273FCD"/>
<path d="M10.917 17.2224H11.598C12.3096 17.2224 12.8556 17.0744 13.236 16.7784C13.6164 16.4825 13.8066 16.0571 13.8066 15.5022C13.8066 14.9473 13.6164 14.5219 13.236 14.2259C12.8556 13.93 12.3096 13.7821 11.598 13.7821H10.917V17.2224ZM18.8496 24.9353H14.3587L10.917 19.5714V24.9353H7.30957V10.9891H12.9231C13.6962 10.9891 14.371 11.1063 14.9477 11.3406C15.5244 11.5625 15.9968 11.8708 16.3649 12.2654C16.7453 12.6599 17.0275 13.1162 17.2115 13.6341C17.4078 14.152 17.506 14.7069 17.506 15.2987C17.506 16.3592 17.2484 17.2224 16.733 17.8882C16.2299 18.5417 15.4814 18.9856 14.4876 19.22L18.8496 24.9353Z" fill="#FCFCFF"/>
<path d="M28.2542 14.0595H23.9658V16.39H28.015V19.4604H23.9658V21.8649H28.2542V24.9353H20.3584V10.9891H28.2542V14.0595Z" fill="#FCFCFF"/>
<path d="M44.0381 19.5328L46.3901 5.60907H49.955L52.7296 13.0326L55.4859 5.60907H59.051L61.4027 19.5328H57.8199L56.6252 11.5183L53.3542 19.5328H51.9213L48.8157 11.5183L47.6213 19.5328H44.0381Z" fill="#FCFCFF"/>
<path d="M71.2181 14.3621L69.6011 9.72706L67.984 14.3621H71.2181ZM72.1737 17.1137H67.0289L66.2019 19.5328H62.3613L67.6348 5.60907H71.5673L76.8413 19.5328H73.0007L72.1737 17.1137Z" fill="#FCFCFF"/>
<path d="M84.7121 11.7399H91.86C91.86 12.4785 91.8297 13.1495 91.7682 13.7527C91.7071 14.356 91.5845 14.9161 91.4009 15.4332C91.1436 16.1595 90.7944 16.8059 90.3534 17.3722C89.9125 17.9262 89.3918 18.394 88.7914 18.7756C88.2036 19.1449 87.5542 19.4281 86.8438 19.6251C86.1334 19.822 85.3857 19.9205 84.6021 19.9205C83.5239 19.9205 82.5375 19.742 81.6435 19.385C80.7615 19.028 80.0017 18.5294 79.365 17.8892C78.7277 17.2367 78.2317 16.4612 77.8765 15.5624C77.5213 14.6514 77.3438 13.6481 77.3438 12.5524C77.3438 11.4691 77.5153 10.478 77.8579 9.57933C78.2136 8.66833 78.7096 7.89271 79.3463 7.25257C79.9956 6.61237 80.7737 6.1138 81.6803 5.75679C82.5865 5.39973 83.5976 5.22125 84.7121 5.22125C86.1576 5.22125 87.4256 5.53516 88.5159 6.16303C89.6062 6.7909 90.47 7.76346 91.1067 9.08071L87.6889 10.5027C87.3706 9.73935 86.9538 9.19155 86.4397 8.85913C85.9372 8.52671 85.3615 8.36055 84.7121 8.36055C84.1733 8.36055 83.6834 8.46516 83.2419 8.67446C82.8009 8.87145 82.4215 9.16077 82.1026 9.54237C81.7964 9.9117 81.5517 10.3611 81.368 10.8904C81.1965 11.4198 81.1107 12.0108 81.1107 12.6632C81.1107 13.2541 81.1838 13.802 81.3312 14.3067C81.4901 14.8115 81.7232 15.2485 82.0295 15.6179C82.3357 15.9872 82.7151 16.2765 83.1687 16.4858C83.6218 16.6827 84.1485 16.7812 84.749 16.7812C85.1042 16.7812 85.4472 16.7443 85.7777 16.6704C86.1087 16.5843 86.4029 16.455 86.6602 16.2826C86.9296 16.098 87.1501 15.8641 87.3216 15.5809C87.4932 15.2978 87.6092 14.9531 87.6708 14.5468H84.7121V11.7399Z" fill="#FCFCFF"/>
<path d="M97.7382 5.60907V19.5328H94.1367V5.60907H97.7382Z" fill="#FCFCFF"/>
<path d="M110.61 10.2626C109.777 9.24078 108.749 8.72988 107.524 8.72988C106.984 8.72988 106.482 8.82835 106.016 9.02534C105.563 9.22232 105.171 9.49313 104.84 9.83787C104.51 10.1702 104.246 10.5703 104.05 11.0382C103.867 11.506 103.775 12.0108 103.775 12.5524C103.775 13.1064 103.867 13.6173 104.05 14.0851C104.246 14.553 104.51 14.9592 104.84 15.3039C105.183 15.6486 105.582 15.9195 106.035 16.1164C106.488 16.3134 106.978 16.4119 107.505 16.4119C108.657 16.4119 109.692 15.9194 110.61 14.9346V19.2188L110.243 19.3481C109.692 19.545 109.177 19.6866 108.7 19.7728C108.222 19.8713 107.75 19.9205 107.284 19.9205C106.329 19.9205 105.41 19.742 104.528 19.385C103.658 19.0157 102.887 18.5047 102.213 17.8523C101.551 17.1875 101.018 16.4057 100.614 15.5071C100.21 14.5961 100.008 13.605 100.008 12.534C100.008 11.4629 100.204 10.4842 100.596 9.59779C101 8.69911 101.533 7.92967 102.195 7.28948C102.868 6.63702 103.646 6.13226 104.528 5.77525C105.41 5.40592 106.335 5.22125 107.303 5.22125C107.854 5.22125 108.393 5.28281 108.92 5.40592C109.459 5.51671 110.023 5.69524 110.61 5.94146V10.2626Z" fill="#FCFCFF"/>
<path d="M45.4674 25.1971C46.1733 25.1971 46.6876 25.3364 47.0102 25.6151C47.3329 25.8938 47.4942 26.2864 47.4942 26.7931C47.4942 27.016 47.4564 27.2313 47.3807 27.4391C47.3102 27.6418 47.1917 27.8242 47.0253 27.9863C46.8589 28.1484 46.6371 28.2776 46.3598 28.3739C46.0825 28.4651 45.7422 28.5107 45.3389 28.5107H44.7187V30.6235H44.0381V25.1971H45.4674ZM45.4069 25.7823H44.7187V27.9255H45.2632C45.6061 27.9255 45.8909 27.89 46.1178 27.8191C46.3447 27.7431 46.5136 27.624 46.6245 27.4619C46.7354 27.2997 46.7909 27.087 46.7909 26.8235C46.7909 26.4739 46.68 26.2129 46.4581 26.0407C46.2363 25.8684 45.8859 25.7823 45.4069 25.7823Z" fill="#FCFCFF"/>
<path d="M51.6349 30.6235H48.6172V25.1971H51.6349V25.7975H49.2978V27.4923H51.4986V28.0851H49.2978V30.0231H51.6349V30.6235Z" fill="#FCFCFF"/>
<path d="M55.2013 30.6235L53.4243 25.8659H53.394C53.4041 25.9672 53.4117 26.0964 53.4167 26.2535C53.4268 26.4105 53.4344 26.5828 53.4394 26.7703C53.4445 26.9527 53.447 27.1402 53.447 27.3327V30.6235H52.8193V25.1971H53.8249L55.4889 29.6431H55.5192L57.2129 25.1971H58.2114V30.6235H57.5384V27.2871C57.5384 27.1097 57.5409 26.935 57.5459 26.7627C57.551 26.5854 57.5585 26.4207 57.5686 26.2687C57.5787 26.1116 57.5863 25.9799 57.5913 25.8735H57.5611L55.7613 30.6235H55.2013Z" fill="#FCFCFF"/>
<path d="M64.3916 27.9027C64.3916 28.3232 64.3391 28.7058 64.2332 29.0503C64.1272 29.3898 63.9683 29.6836 63.7564 29.9319C63.55 30.1802 63.2902 30.3702 62.9779 30.5019C62.6701 30.6336 62.3119 30.6995 61.9037 30.6995C61.4804 30.6995 61.1121 30.6336 60.7997 30.5019C60.4869 30.3651 60.2276 30.1751 60.0207 29.9319C59.8139 29.6836 59.66 29.3872 59.5591 29.0427C59.4587 28.6982 59.4082 28.3156 59.4082 27.8951C59.4082 27.3378 59.499 26.8514 59.6802 26.4359C59.8618 26.0204 60.1368 25.6962 60.5046 25.4631C60.8779 25.23 61.3467 25.1135 61.9113 25.1135C62.4506 25.1135 62.9047 25.23 63.2725 25.4631C63.6408 25.6911 63.9178 26.0153 64.1045 26.4359C64.2962 26.8514 64.3916 27.3403 64.3916 27.9027ZM60.1267 27.9027C60.1267 28.3587 60.1897 28.7514 60.3154 29.0807C60.4415 29.41 60.6358 29.6634 60.8981 29.8407C61.165 30.018 61.5006 30.1067 61.9037 30.1067C62.3119 30.1067 62.6449 30.018 62.9022 29.8407C63.164 29.6634 63.3583 29.41 63.4844 29.0807C63.6106 28.7514 63.6736 28.3587 63.6736 27.9027C63.6736 27.2187 63.5324 26.6841 63.2498 26.2991C62.9678 25.9089 62.5212 25.7139 61.9113 25.7139C61.5031 25.7139 61.165 25.8025 60.8981 25.9798C60.6358 26.1521 60.4415 26.4029 60.3154 26.7323C60.1897 27.0566 60.1267 27.4467 60.1267 27.9027Z" fill="#FCFCFF"/>
<path d="M69.7186 30.6234H69.0374V28.0926H66.27V30.6234H65.5889V25.197H66.27V27.4923H69.0374V25.197H69.7186V30.6234Z" fill="#FCFCFF"/>
<path d="M72.9035 30.6234H72.2228V25.7974H70.5361V25.197H74.5826V25.7974H72.9035V30.6234Z" fill="#FCFCFF"/>
<path d="M79.4391 30.6235H78.7585V25.7975H77.0723V25.1971H81.1182V25.7975H79.4391V30.6235Z" fill="#FCFCFF"/>
<path d="M84.9498 30.6235H81.9326V25.1971H84.9498V25.7975H82.6132V27.4923H84.8141V28.0851H82.6132V30.0231H84.9498V30.6235Z" fill="#FCFCFF"/>
<path d="M89.8025 30.6235H89.0311L87.6022 28.2675L86.1501 30.6235H85.4316L87.2238 27.7963L85.5452 25.1971H86.301L87.6249 27.3251L88.9559 25.1971H89.6744L88.0028 27.7811L89.8025 30.6235Z" fill="#FCFCFF"/>
<path d="M94.6946 30.6234H94.014V28.0926H91.2461V30.6234H90.5654V25.197H91.2461V27.4923H94.014V25.197H94.6946V30.6234Z" fill="#FCFCFF"/>
<path d="M96.1787 25.197H96.8139V28.1763C96.8139 28.3029 96.8114 28.4422 96.8064 28.5943C96.8064 28.7412 96.8038 28.8881 96.7988 29.035C96.7938 29.182 96.7862 29.3137 96.7761 29.4303C96.7711 29.5417 96.766 29.6279 96.761 29.6887H96.7912L99.7635 25.197H100.52V30.6234H99.8846V27.6746C99.8846 27.5378 99.8871 27.3909 99.8922 27.2338C99.8972 27.0717 99.9023 26.9172 99.9073 26.7702C99.9174 26.6182 99.925 26.4839 99.93 26.3674C99.9351 26.2509 99.9401 26.1648 99.9451 26.109H99.9149L96.935 30.6234H96.1787V25.197Z" fill="#FCFCFF"/>
<path d="M105.917 30.6234H105.1L102.657 27.8722V30.6234H101.977V25.197H102.657V27.8266L105.039 25.197H105.811L103.466 27.8343L105.917 30.6234Z" fill="#FCFCFF"/>
<path d="M106.659 25.197H107.294V28.1763C107.294 28.3029 107.292 28.4422 107.287 28.5943C107.287 28.7412 107.284 28.8881 107.279 29.035C107.274 29.182 107.267 29.3137 107.257 29.4303C107.252 29.5417 107.246 29.6279 107.241 29.6887H107.272L110.244 25.197H111V30.6234H110.365V27.6746C110.365 27.5378 110.368 27.3909 110.373 27.2338C110.378 27.0717 110.383 26.9172 110.388 26.7702C110.398 26.6182 110.405 26.4839 110.41 26.3674C110.416 26.2509 110.421 26.1648 110.426 26.109H110.395L107.415 30.6234H106.659V25.197Z" fill="#FCFCFF"/>
</g>
<defs>
<clipPath id="clip0_134_2352">
<rect width="111" height="36" fill="white"/>
</clipPath>
</defs>
</svg>
