<svg width="111" height="36" viewBox="0 0 111 36" fill="none" xmlns="http://www.w3.org/2000/svg">
<path fill-rule="evenodd" clip-rule="evenodd" d="M60.7739 17.4362C60.7739 17.4362 59.7129 16.786 59.0568 16.5345C59.0568 16.5345 57.026 15.6017 56.6231 15.158C56.6231 15.158 55.8317 14.4188 56.2951 13.5602C56.2951 13.5602 56.4891 12.9985 57.3255 12.9985C57.3255 12.9985 58.4144 13.0578 58.4144 13.9447V15.1957H62.3167L62.3099 13.3532C62.3099 13.3532 62.61 10.3358 57.7134 10.203C57.7134 10.203 53.8621 9.95206 52.7576 12.0077C52.7576 12.0077 52.3241 12.4663 52.3241 14.0634V15.2173C52.3241 15.2173 52.2798 16.5486 52.9658 17.4065C52.9658 17.4065 53.3537 17.969 54.3092 18.5895C54.3092 18.5895 56.2495 19.6247 57.414 20.2175C57.414 20.2175 58.5893 20.8825 58.4348 21.9407C58.4348 21.9407 58.3388 23.0272 57.2037 22.9827C57.2037 22.9827 56.1658 22.9368 56.1658 21.8712V20.6208H52.0076V22.4371C52.0076 22.4371 51.8912 25.9104 57.2343 25.9104C57.2343 25.9104 62.3398 26.0129 62.578 22.346V20.867C62.5774 20.867 62.7584 18.6198 60.7739 17.4362ZM40.7954 10.6353L39.4887 18.75H39.1831L37.935 10.7081H31.4166L31.0899 25.4032H34.9494L34.9957 14.3311H35.2992L37.3449 25.4012H41.4052L43.4257 14.3352H43.6946L43.7878 25.4032H47.6677L47.2498 10.6353H40.7954ZM17.8211 10.6966L15.2533 25.3863H19.4081L20.9292 13.9966H21.2708L22.7912 25.3863H26.9453L24.3783 10.6966H17.8211ZM105.002 17.2339V19.4008H106.068V21.7269C106.068 22.864 105.087 22.8849 105.087 22.8849C103.895 22.8849 103.94 21.8045 103.94 21.8045V13.7585C103.94 12.9297 104.998 12.8851 104.998 12.8851C106.013 12.8851 106.02 13.8739 106.02 13.8739V15.0973H109.932C110.06 12.7091 109.579 12.1311 109.579 12.1311C108.609 9.97162 104.938 10.0896 104.938 10.0896C99.2969 10.0896 99.923 14.379 99.923 14.379V22.1585C100.044 26.1815 105.603 25.7728 105.697 25.7694C108.169 25.4983 108.916 24.7193 108.916 24.7193C109.603 24.2135 109.78 23.5128 109.78 23.5128C109.977 23.1048 110.026 21.8045 110.026 21.8045V17.2339H105.002ZM92.0353 19.6247H91.8652L87.8955 10.6393H83.1459V25.4046H87.0115L86.7801 16.4205H86.9529L91.0655 25.4046H95.6709V10.638H91.7563L92.0353 19.6247ZM73.7099 21.7255C73.7099 21.7255 73.7657 22.9375 72.6319 22.9375C72.6319 22.9375 71.4396 23.0009 71.4396 21.7559L71.4273 10.6481H67.1875V21.6675C67.1875 21.6675 66.7526 25.8382 72.6918 25.8382C72.6918 25.8382 77.8532 25.8989 77.8532 21.8591V10.6487H73.7099V21.7255ZM9.73807 17.4362C9.73807 17.4362 8.67844 16.786 8.0217 16.5352C8.0217 16.5352 5.99228 15.6031 5.58939 15.1586C5.58939 15.1586 4.7979 14.4181 5.26204 13.5616C5.26204 13.5616 5.45532 12.9998 6.29104 12.9998C6.29104 12.9998 7.38062 13.0585 7.38062 13.9453V15.1964H11.2843L11.2768 13.3532C11.2768 13.3532 11.5749 10.3358 6.68032 10.2036C6.68032 10.2036 6.31146 10.18 5.77042 10.207C5.77042 10.207 2.80522 10.3648 1.74491 11.9767C1.73878 11.9888 1.72994 11.9976 1.72381 12.0084C1.72381 12.0084 1.29098 12.4663 1.29098 14.064V15.218C1.29098 15.218 1.24606 16.5493 1.93274 17.4072C1.93274 17.4072 2.32066 17.9697 3.27617 18.5901C3.27617 18.5901 5.21576 19.6254 6.3802 20.2182C6.3802 20.2182 7.55688 20.8818 7.40103 21.9414C7.40103 21.9414 7.30508 23.0279 6.17058 22.9834C6.17058 22.9834 5.13273 22.9375 5.13273 21.8719V20.6208H0.973836V22.4384C0.973836 22.4384 0.85746 25.9117 6.20053 25.9117C6.20053 25.9117 11.3047 26.0142 11.545 22.3474V20.8697C11.545 20.8684 11.7233 18.6198 9.73807 17.4362Z" fill="white"/>
</svg>
