<svg width="111" height="36" viewBox="0 0 111 36" fill="none" xmlns="http://www.w3.org/2000/svg">
<g clip-path="url(#clip0_134_2350)">
<path d="M13.4903 18.6265C13.4664 16.0989 15.5413 14.8845 15.6347 14.8267C14.4668 13.1087 12.6527 12.8726 12.0065 12.8461C10.4629 12.687 8.99344 13.7617 8.20846 13.7617C7.42348 13.7617 6.21489 12.8678 4.93451 12.8943C3.24968 12.9184 1.69647 13.8797 0.827726 15.3977C-0.919334 18.4482 0.382585 22.978 2.08896 25.4574C2.9242 26.6694 3.915 28.0355 5.2217 27.9849C6.48054 27.9343 6.9544 27.1657 8.47171 27.1657C9.98902 27.1657 10.4174 27.9849 11.7457 27.9608C13.0978 27.9343 13.9546 26.7224 14.7827 25.5056C15.7352 24.096 16.1301 22.7346 16.154 22.6624C16.1229 22.6503 13.519 21.6456 13.4903 18.6265Z" fill="white"/>
<path d="M10.9946 11.2028C11.6886 10.3571 12.1553 9.18365 12.0285 8.01263C11.0305 8.0536 9.82191 8.68247 9.10633 9.52821C8.46495 10.2752 7.90254 11.4703 8.0557 12.6172C9.16377 12.7039 10.3029 12.0461 10.9946 11.2028ZM22.2428 21.1107L21.094 24.6165H19.6174L23.3772 13.475H25.1003L28.8744 24.6165H27.3476L26.1653 21.1107H22.2428ZM25.8709 19.9854L24.7892 16.7784C24.5427 16.0507 24.3799 15.3905 24.2148 14.7448H24.1837C24.0186 15.405 23.8391 16.082 23.6261 16.7615L22.5443 19.983L25.8709 19.9854ZM29.9945 19.2264C29.9945 18.2024 29.9634 17.3735 29.9275 16.6145H31.2246L31.2916 17.988H31.3227C31.9138 17.0121 32.8496 16.4338 34.1467 16.4338C36.0685 16.4338 37.5116 18.0699 37.5116 20.5011C37.5116 23.378 35.7717 24.7972 33.9002 24.7972C32.8496 24.7972 31.9306 24.3346 31.4543 23.5418H31.4232V27.8886H29.9945V19.2264ZM31.4208 21.3588C31.4208 21.5757 31.4519 21.7709 31.4878 21.954C31.7511 22.9612 32.6199 23.6575 33.6561 23.6575C35.183 23.6575 36.0709 22.4022 36.0709 20.5661C36.0709 18.9614 35.2333 17.5928 33.7064 17.5928C32.7228 17.5928 31.8038 18.3036 31.5214 19.3951C31.4711 19.5758 31.4232 19.7927 31.4232 19.9902L31.4208 21.3588ZM39.005 19.2264C39.005 18.2024 38.9739 17.3735 38.938 16.6145H40.2351L40.3021 17.988H40.3332C40.9244 17.0121 41.8601 16.4338 43.1573 16.4338C45.079 16.4338 46.5221 18.0699 46.5221 20.5011C46.5221 23.378 44.7823 24.7972 42.9108 24.7972C41.8601 24.7972 40.9411 24.3346 40.4649 23.5418H40.4338V27.8886H39.005V19.2264ZM40.4338 21.3588C40.4338 21.5757 40.4649 21.7709 40.5008 21.954C40.764 22.9612 41.6328 23.6575 42.669 23.6575C44.1959 23.6575 45.0838 22.4022 45.0838 20.5661C45.0838 18.9614 44.2462 17.5928 42.7193 17.5928C41.7357 17.5928 40.8167 18.3036 40.5343 19.3951C40.484 19.5758 40.4361 19.7927 40.4361 19.9902L40.4338 21.3588ZM48.0179 12.8798H49.4634V24.6141H48.0179V12.8798ZM52.3688 20.8793C52.3999 22.8455 53.6492 23.6575 55.0923 23.6575C56.1262 23.6575 56.7508 23.4768 57.2917 23.2455L57.5382 24.2864C57.0308 24.5177 56.1597 24.7827 54.8961 24.7827C52.4502 24.7827 50.9879 23.1636 50.9879 20.7492C50.9879 18.3349 52.3999 16.4338 54.7142 16.4338C57.3084 16.4338 57.9977 18.7301 57.9977 20.2023C57.9977 20.5011 57.9666 20.73 57.9474 20.8793H52.3688ZM56.6048 19.8384C56.6216 18.9132 56.2267 17.4747 54.6017 17.4747C53.1394 17.4747 52.5004 18.8313 52.3856 19.8384H56.6048Z" fill="white"/>
</g>
<defs>
<clipPath id="clip0_134_2350">
<rect width="111" height="36" fill="white"/>
</clipPath>
</defs>
</svg>
